<svg fill="none" xmlns="http://www.w3.org/2000/svg">
<symbol viewBox="0 0 73 65" id="messageInABottle">
<path d="M4.20567 28.0782C3.60511 32.4366 4.04253 36.8752 5.48231 41.0325C7.18281 46.0109 10.2358 50.4175 14.2992 53.7588C18.3627 57.1001 23.2762 59.2441 28.4893 59.9507C32.8477 60.5512 26.8443 59.6782 33.6094 60.6426L65.3929 60.6635L53.9992 51.1207C56.4908 47.4947 59.784 40.0285 60.3618 35.667C61.0643 30.4533 60.3014 25.147 58.1585 20.3424C56.0156 15.5378 52.5774 11.4247 48.2289 8.46382C44.6029 5.97222 40.4396 4.37235 36.0782 3.79452L34.4265 3.57132C27.4899 3.02072 20.594 5.04803 15.0591 9.2651C9.52416 13.4822 5.73918 19.5926 4.42887 26.4265L4.20567 28.0782Z" fill="#7EF4AE" stroke="#0A0A0A" stroke-width="0.3" stroke-linecap="round" stroke-linejoin="round"/>
<g clip-path="url(#clip0_131_434)">
<path d="M48.7429 32.4572C47.3619 32.495 46.6689 32.7767 45.9989 33.0491C45.5155 33.2645 45.0067 33.4176 44.4847 33.5049C41.9344 31.5461 38.3757 28.9875 35.7614 27.8025C35.5935 27.7201 33.1751 26.5703 29.878 26.857C29.3148 26.9021 28.7521 26.763 28.2747 26.4608L24.4494 24.0595C24.4963 23.773 24.4871 23.4801 24.4225 23.197C24.3665 22.9634 24.2634 22.7436 24.1196 22.5512C23.9758 22.3587 23.7942 22.1977 23.586 22.0778C23.577 22.0722 23.5678 22.0672 23.5584 22.0626C23.2514 21.9114 22.9087 21.8481 22.568 21.8795C22.2274 21.9109 21.902 22.0358 21.6279 22.2405L20.2881 21.0328C19.5394 20.4304 18.4643 21.1935 18.1623 21.6398C17.7839 22.1668 17.6439 22.6449 17.7458 23.061C17.7785 23.1956 17.8379 23.3222 17.9205 23.4334C18.003 23.5445 18.1071 23.6379 18.2265 23.7081L19.7652 24.6488C19.747 24.7159 19.7302 24.7829 19.7166 24.8493C19.6434 25.1859 19.6666 25.5364 19.7836 25.8604C19.9006 26.1845 20.1066 26.4689 20.378 26.6811C20.7246 26.9573 21.1578 27.1019 21.6008 27.0893C21.8593 27.0818 22.1138 27.0225 22.349 26.9147C22.3738 26.9033 22.3983 26.8905 22.4234 26.8783L25.7415 29.3192C26.2325 29.678 26.5831 30.1967 26.733 30.786C26.85 31.2524 27.0023 31.7092 27.1886 32.1525C27.2062 32.1944 27.2318 32.2325 27.2641 32.2645C27.2964 32.2965 27.3346 32.3218 27.3767 32.339C27.4188 32.3563 27.4638 32.365 27.5093 32.3648C27.5547 32.3646 27.5997 32.3555 27.6416 32.3379C27.6836 32.3204 27.7216 32.2947 27.7536 32.2624C27.7856 32.2302 27.811 32.1919 27.8282 32.1498C27.8454 32.1077 27.8542 32.0627 27.854 32.0172C27.8538 31.9718 27.8447 31.9268 27.8271 31.8849C27.6544 31.4741 27.5132 31.0507 27.4047 30.6185C27.2158 29.8725 26.7727 29.2157 26.1517 28.7612L22.6578 26.1915C22.6023 26.1517 22.5366 26.1289 22.4685 26.1258C22.4004 26.1227 22.3328 26.1395 22.274 26.174C22.2049 26.2146 22.1338 26.2517 22.061 26.2851C21.8597 26.381 21.6355 26.4182 21.414 26.3925C21.1925 26.3667 20.9828 26.2789 20.8089 26.1393C20.6444 26.0102 20.5182 25.8385 20.4441 25.6429C20.37 25.4473 20.3507 25.2352 20.3884 25.0294L20.6266 25.1751C20.8044 25.2837 21.0033 25.3531 21.21 25.3786C21.4168 25.4042 21.6266 25.3853 21.8254 25.3232C22.0174 25.2639 22.1945 25.1644 22.3448 25.0312C22.4952 24.898 22.6153 24.7342 22.6972 24.5508L22.7105 24.5204C22.8267 24.2433 22.8537 23.9369 22.7878 23.6438C22.7218 23.3507 22.5662 23.0854 22.3425 22.8848L22.1592 22.7197C22.3224 22.6259 22.5059 22.573 22.694 22.5656C22.8821 22.5583 23.0692 22.5966 23.2392 22.6774C23.3662 22.7505 23.4769 22.8487 23.5647 22.966C23.6525 23.0833 23.7155 23.2173 23.7499 23.3597C23.8627 23.8268 23.7058 24.4713 23.3308 25.084C23.2863 25.1621 23.2741 25.2545 23.2965 25.3415C23.3189 25.4285 23.3743 25.5034 23.4509 25.5503C23.5275 25.5973 23.6194 25.6126 23.7071 25.593C23.7948 25.5734 23.8715 25.5205 23.9209 25.4455C24.0539 25.2268 24.1672 24.9968 24.2596 24.7582L27.9067 27.0477C28.5121 27.4294 29.2249 27.6047 29.9382 27.5472C33.0819 27.2731 35.4364 28.4146 35.4594 28.4262C35.4631 28.4281 35.4669 28.4298 35.4706 28.4315C37.8263 29.4982 40.9978 31.7313 43.4558 33.5919C42.6076 33.6312 41.7605 33.4936 40.9683 33.1878C40.2843 32.9525 39.577 32.7092 38.196 32.7471C36.815 32.7849 36.1223 33.0666 35.4523 33.339C34.8112 33.5997 34.2057 33.8458 32.9503 33.8802C31.6949 33.9147 31.0768 33.7015 30.4225 33.4769C29.7385 33.2416 29.0313 32.9983 27.6503 33.0362C26.2693 33.074 25.5766 33.3557 24.9067 33.6281C24.2657 33.8887 23.6601 34.1349 22.4048 34.1693C21.1494 34.2037 20.5314 33.9906 19.877 33.7659C19.1932 33.5307 18.4859 33.2874 17.105 33.3252C17.0143 33.3292 16.9288 33.3688 16.867 33.4352C16.8051 33.5017 16.7718 33.5898 16.7743 33.6806C16.7768 33.7713 16.8149 33.8575 16.8803 33.9205C16.9457 33.9834 17.0332 34.0182 17.124 34.0173C18.3794 33.9828 18.9974 34.196 19.6517 34.4206C20.3356 34.656 21.0428 34.8993 22.4237 34.8615C23.8046 34.8236 24.4975 34.5419 25.1674 34.2695C25.8084 34.0088 26.414 33.7626 27.6692 33.7282C27.7935 33.7248 27.9098 33.7245 28.0222 33.7256C28.572 34.5721 29.2434 35.3329 30.0148 35.9837C30.0723 36.0326 35.8192 40.9086 40.5474 43.3865C41.0719 43.6602 41.6713 43.7555 42.2548 43.6581C42.8383 43.5606 43.3741 43.2756 43.7811 42.8463C44.7318 41.8375 46.0715 40.2255 47.0562 38.2749C47.3319 37.7193 47.4092 37.0862 47.2754 36.4806C47.1416 35.875 46.8048 35.3333 46.3207 34.9456C46.2129 34.8591 45.7541 34.4352 45.4956 34.7313C45.2301 35.0355 45.7808 35.4 45.888 35.4859C46.2485 35.7741 46.4997 36.1768 46.5998 36.6274C46.6999 37.078 46.6428 37.5492 46.4381 37.9629C45.491 39.8396 44.1965 41.3956 43.2772 42.3712C42.974 42.6908 42.5749 42.9029 42.1403 42.9754C41.7057 43.0479 41.2594 42.9767 40.8688 42.7728C36.2102 40.3312 30.5207 35.5046 30.4627 35.4552C29.8797 34.9634 29.357 34.4043 28.9055 33.7894C29.3463 33.8598 29.779 33.9742 30.1969 34.1311C30.8808 34.3664 31.588 34.6098 32.969 34.5719C34.3499 34.534 35.0428 34.2523 35.7128 33.9799C36.3539 33.7192 36.9593 33.473 38.2147 33.4386C39.47 33.4042 40.0885 33.6174 40.7429 33.842C41.4268 34.0774 42.1341 34.3207 43.5153 34.2828C44.8965 34.2449 45.5892 33.9633 46.2593 33.6908C46.9004 33.4301 47.5059 33.1839 48.7616 33.1495C48.8523 33.1455 48.9378 33.106 48.9997 33.0395C49.0615 32.9731 49.0948 32.8849 49.0923 32.7942C49.0898 32.7034 49.0518 32.6173 48.9864 32.5543C48.921 32.4913 48.8334 32.4565 48.7426 32.4575L48.7429 32.4572ZM18.733 22.0319C18.7503 22.0064 19.0869 21.5237 19.5459 21.5111C19.6476 21.5087 19.7485 21.5289 19.8414 21.5704C19.9116 21.6715 20.0795 22.028 19.5981 22.6911C19.1098 23.3641 18.6658 23.1616 18.5853 23.1162L18.5833 23.1151C18.5781 23.1108 18.5721 23.1074 18.5657 23.1051C18.5275 23.0802 18.4946 23.048 18.4689 23.0104C18.4432 22.9728 18.4252 22.9305 18.4159 22.8859C18.3715 22.6809 18.4822 22.3805 18.733 22.0319ZM22.0731 24.2494L22.0637 24.2696C22.0222 24.3633 21.961 24.4468 21.8841 24.5146C21.8073 24.5823 21.7168 24.6326 21.6187 24.662C21.5139 24.6948 21.4033 24.7047 21.2944 24.6913C21.1854 24.6778 21.0806 24.6412 20.987 24.584L19.5219 23.6884C19.7745 23.5401 19.9918 23.3385 20.1585 23.0976C20.3562 22.8395 20.5003 22.5446 20.5825 22.2301L21.8786 23.3988C21.9954 23.5028 22.0768 23.6406 22.1117 23.793C22.1465 23.9455 22.133 24.105 22.0731 24.2494Z" fill="#0A0A0A"/>
<path d="M38.0704 39.4921L42.5626 40.0877C42.6372 40.0976 42.7125 40.1015 42.7877 40.0994C43.0486 40.0935 43.3024 40.0133 43.5194 39.8683C43.7363 39.7232 43.9074 39.5193 44.0125 39.2804C44.9465 37.6359 44.3882 35.6798 44.3638 35.5968C44.3471 35.5403 44.3163 35.4889 44.2742 35.4476C44.2321 35.4063 44.1802 35.3764 44.1234 35.3607C41.7813 34.7173 39.0175 34.7849 38.9009 34.7881C38.8464 34.7895 38.7929 34.8038 38.745 34.8298C38.697 34.8558 38.6559 34.8928 38.6249 34.9377C38.594 34.9827 38.5741 35.0343 38.5669 35.0883C38.5597 35.1424 38.5653 35.1974 38.5834 35.2489C38.7411 35.6853 38.8091 36.149 38.7833 36.6122L38.2768 36.5751C38.0722 36.5594 37.8666 36.5903 37.6755 36.6655C37.4845 36.7407 37.313 36.8582 37.1739 37.0092C37.0365 37.1559 36.934 37.3318 36.8742 37.5236C36.8143 37.7155 36.7986 37.9184 36.8282 38.1173C36.8522 38.274 36.891 38.4281 36.944 38.5775C37.0282 38.8195 37.1782 39.0333 37.3772 39.1949C37.5762 39.3565 37.8162 39.4594 38.0704 39.4921ZM39.372 35.4787C40.2148 35.4867 42.0905 35.5561 43.744 35.9766C43.8486 36.4739 43.8806 36.9838 43.839 37.4903C43.7231 37.3234 43.5713 37.1845 43.3947 37.0837C43.2182 36.983 43.0214 36.923 42.8187 36.9081L39.4742 36.6631C39.4992 36.2654 39.4648 35.8662 39.372 35.4787ZM37.6815 37.4802C37.7504 37.4058 37.8351 37.3478 37.9295 37.3106C38.0238 37.2733 38.1254 37.2578 38.2265 37.2652L42.768 37.5979C42.8946 37.6066 43.0161 37.6513 43.1181 37.7268C43.2201 37.8023 43.2984 37.9054 43.3436 38.024C43.4579 38.3076 43.4804 38.6198 43.4081 38.9169C43.3683 39.0589 43.2828 39.1839 43.1648 39.2725C43.0468 39.361 42.9029 39.4083 42.7554 39.4068C42.6863 39.3104 42.5834 39.0614 42.7778 38.5473C42.8102 38.4614 42.8072 38.3661 42.7694 38.2824C42.7317 38.1988 42.6622 38.1335 42.5763 38.1011C42.4904 38.0686 42.3951 38.0716 42.3114 38.1094C42.2277 38.1472 42.1625 38.2167 42.13 38.3026C41.995 38.6212 41.9476 38.9702 41.9927 39.3133L38.1614 38.8054C38.0343 38.7891 37.9142 38.7377 37.8147 38.657C37.7151 38.5762 37.6401 38.4693 37.598 38.3483C37.5593 38.2402 37.531 38.1288 37.5134 38.0154C37.4993 37.9193 37.5072 37.8213 37.5363 37.7286C37.5654 37.6359 37.615 37.551 37.6815 37.4802Z" fill="#0A0A0A"/>
<path d="M34.8626 29.9986C34.938 29.9967 35.0108 29.9703 35.0698 29.9233C35.1288 29.8764 35.1709 29.8114 35.1896 29.7383C35.2083 29.6653 35.2026 29.5881 35.1734 29.5185C35.1443 29.449 35.0932 29.3908 35.0279 29.353C34.959 29.3129 34.8898 29.2743 34.8203 29.2372C34.7801 29.2158 34.7361 29.2025 34.6909 29.1981C34.6456 29.1936 34.5999 29.1982 34.5563 29.2114C34.5128 29.2247 34.4723 29.2463 34.4371 29.2752C34.402 29.3041 34.3729 29.3396 34.3514 29.3798C34.33 29.4199 34.3167 29.4639 34.3123 29.5092C34.3078 29.5545 34.3124 29.6002 34.3256 29.6437C34.3389 29.6873 34.3605 29.7278 34.3894 29.7629C34.4183 29.7981 34.4538 29.8272 34.494 29.8486C34.6103 29.9134 34.7341 29.9637 34.8626 29.9986Z" fill="#0A0A0A"/>
<path d="M33.1013 29.3079C33.1455 29.3205 33.1918 29.3241 33.2374 29.3186C33.283 29.3132 33.3271 29.2986 33.3671 29.276C33.407 29.2533 33.4421 29.2228 33.4702 29.1865C33.4982 29.1501 33.5188 29.1085 33.5306 29.0641C33.5425 29.0197 33.5454 28.9734 33.5391 28.9278C33.5329 28.8823 33.5176 28.8385 33.4943 28.7989C33.4709 28.7593 33.4399 28.7248 33.403 28.6973C33.3662 28.6699 33.3243 28.65 33.2797 28.6389C32.2666 28.3717 31.2151 28.2801 30.1711 28.3681C30.1259 28.3733 30.0822 28.3873 30.0424 28.4094C30.0027 28.4315 29.9676 28.4612 29.9394 28.4968C29.9111 28.5324 29.8901 28.5732 29.8776 28.6169C29.8651 28.6607 29.8613 28.7064 29.8665 28.7516C29.8717 28.7968 29.8857 28.8405 29.9078 28.8803C29.9298 28.92 29.9595 28.955 29.9951 28.9833C30.0307 29.0116 30.0716 29.0326 30.1153 29.0451C30.159 29.0576 30.2048 29.0614 30.25 29.0562C31.2078 28.9807 32.1715 29.0658 33.1013 29.3079Z" fill="#0A0A0A"/>
</g>
<defs>
<clipPath id="clip0_131_434">
<rect width="34" height="34" fill="white" transform="translate(15.4454 15.6653) rotate(-1.57017)"/>
</clipPath>
</defs>
</symbol>
</svg>
